# xmcd
#
# Track frame offsets:
#	182
#	13085
#	29782
#	46250
#	65365
#	78952
#	93270
#	107302
#	124280
#	141320
#
# Disc length: 2061 seconds
#
# Revision: 4
# Processed by: cddbd v1.5.2PL0 Copyright (c) Steve Scherf et al.
# Submitted via: EZCDAudioConverter 6.0.7.1
#
DISCID=80080b0a
DTITLE=Martin Delray - Get Rhythm
DYEAR=1990
DGENRE=Country
TTITLE0=Get Rhythm
TTITLE1=The Very Thought Of You
TTITLE2=One In A Row
TTITLE3=If The Wind Blows Sand
TTITLE4=New Wine
TTITLE5=Lillie's White Lies
TTITLE6=Silence Says It All
TTITLE7=Someone To Love You
TTITLE8=I Let Love Do My Talkin'
TTITLE9=Who, What, Where, When, How, Why
EXTD=
EXTT0=
EXTT1=
EXTT2=
EXTT3=
EXTT4=
EXTT5=
EXTT6=
EXTT7=
EXTT8=
EXTT9=
PLAYORDER=
